<?xml version="1.0" encoding="UTF-8"?>
<svg id="Layer_1" data-name="Layer 1" xmlns="http://www.w3.org/2000/svg" viewBox="0 0 800 800">
  <defs>
    <style>
      .cls-1 {
        fill: #f47b38;
      }
    </style>
  </defs>
  <path class="cls-1" d="m798.6,216.2c-3.3-118.3-101.6-136.5-139-136.8-37.2-.3-387.8,6.7-531.3,11.2C-15.2,95.1.5,202.7.5,202.7c0,0,11.3,194.3,11.2,318.3,0,99.9,74,96.4,74,96.4,0,0,101.4-5.6,127.8,0,28.4,6.1,69.5,103.1,69.5,103.1,0,0,33.5-79.4,39.2-118.9,3.3-22.4,2.8-70.4-1.2-120.2-3.9-49.6-54.3-102.3-54.3-102.3,0,0-27.8-21.8-8.7-90,29.4-112.2,118.6-101.9,118.6-101.9,0,0,22.2-3.6,75.4,20.2,28.9,12.9,49.2,36,54.1,63.6,4,22.7-.2,48.1,3.3,59,1.9,6.1,17.2,33.4,19.7,52.6,1.4,11.2-20.4,13.9-12.7,20.1,4.1,2.6,8.1,12.6,6.4,18.1-2.9,9.2-2.8,9.7-6.3,17.8-3.6,8.4,2.2,16.7.4,22.3-4.9,24.7-31.6,25.3-31.6,25.3,0,0-22.7,2.4-22.9,43.7,1.4,62.3,67.3,58.3,67.3,58.3,0,0,121.1,0,195-4.5,74-4.5,74-96.4,74-96.4,0,0,3.1-159.1,0-271.3Zm-252,177.1c2.4-1.5,86.1-25.6,89.5-26.7.8,0,2.4,1.3.8,2.9-22.7,7.8-86.9,26.1-89.4,26.7-2.9-.8-1-3-1-3Zm93.3,27.2c-24-1.4-90.3-8.9-92.8-9.2-2.4-1.9.3-3.1.3-3.1,2.7-.5,89.3,9,92.9,9.4.7.3,1.7,2.1-.3,3Zm.3-24.9c-23.8,3.1-90.4,8.2-92.9,8.4-2.7-1.4-.3-3.1-.3-3.1,2.6-1,89.4-7.9,93-8.3.7.1,2.1,1.8.2,3Z"/>
</svg>