<?xml version="1.0" encoding="UTF-8"?>
<svg id="Layer_1" data-name="Layer 1" xmlns="http://www.w3.org/2000/svg" viewBox="0 0 800 800">
  <defs>
    <style>
      .cls-1 {
        fill: #f47b38;
      }
    </style>
  </defs>
  <path class="cls-1" d="m283,720.6s-41.1-97-69.5-103.1-127.8,0-127.8,0c0,0-74,3.5-74-96.4,0-124-11.2-318.3-11.2-318.3,0,0-15.7-107.6,127.8-112.1s494.2-11.5,531.3-11.2c37.4.3,135.7,18.4,139,136.8,3.1,112.1,0,271.3,0,271.3,0,0,0,91.9-74,96.4-74,4.5-195,4.5-195,4.5,0,0-65.8,4-67.3-58.3.2-41.3,22.9-43.7,22.9-43.7,0,0,26.7-.6,31.6-25.3,1.8-5.6-4-13.8-.4-22.3s3.4-8.5,6.3-17.8c1.7-5.5-2.3-15.5-6.4-18.1-7.7-6.2,14.1-8.9,12.7-20.1-2.5-19.2-17.7-46.5-19.7-52.6-3.5-10.9.8-36.3-3.3-59-4.9-27.6-25.2-50.7-54.1-63.6-53.1-23.8-75.4-20.2-75.4-20.2,0,0-89.2-10.3-118.6,101.9-19,68.2,8.7,90,8.7,90,0,0,50.4,52.8,54.3,102.3,4,49.8,4.4,97.8,1.2,120.2-5.7,39.4-39.2,118.9-39.2,118.9Z"/>
</svg>